<?xml version="1.0" encoding="UTF-8"?>
<!DOCTYPE svg PUBLIC "-//W3C//DTD SVG 1.1//EN" "http://www.w3.org/Graphics/SVG/1.1/DTD/svg11.dtd">
<!-- Creator: CorelDRAW 2020 (64 Bit) -->
<svg xmlns="http://www.w3.org/2000/svg" xml:space="preserve" width="250mm" height="110mm" version="1.1" style="shape-rendering:geometricPrecision; text-rendering:geometricPrecision; image-rendering:optimizeQuality; fill-rule:evenodd; clip-rule:evenodd"
viewBox="0 0 25000 11000"
 xmlns:xlink="http://www.w3.org/1999/xlink"
 xmlns:xodm="http://www.corel.com/coreldraw/odm/2003">
 <defs>
  <style type="text/css">
   <![CDATA[
    .str0 {stroke:#373435;stroke-width:20;stroke-miterlimit:22.9256}
    .fil0 {fill:#FEFEFE}
   ]]>
  </style>
 </defs>
 <g id="Camada_x0020_1">
  <metadata id="CorelCorpID_0Corel-Layer"/>
  <g id="CARRO.cdr">
   <path class="fil0 str0" d="M3746.11 4203.45c4227.04,-267.75 8898.02,237.45 13122.71,676.42 -153.64,274.75 -120.87,521.93 -62.47,809.42 24.97,-145.03 168.77,-549.17 353.7,-722.59 123.78,-116.11 159.6,-220.75 35.63,-328.94 -796.85,-695.82 -5985,-962.82 -7097.78,-1052.79 -1425.62,-115.29 -4479.27,-169.85 -5219.59,-193.89 -132.95,-4.3 -148.28,7.35 -247.4,-70.27 -193.65,-151.68 -447.86,-317.94 -641.51,-469.67 18.18,-31.64 278.07,-87.25 386.83,-138.17l98.18 -441.06c87.1,-390.74 408.33,-515.85 737.94,-647.93 769.24,-308.21 1579.43,-384.91 2419.49,-418.04 205.52,-8.02 315.7,73.13 411.18,268.2 92.8,188.98 804.86,1621.32 925.48,1838.22 1690.81,-104.68 4321.31,-104.23 6291.63,-173.14 -616.46,-572.47 -1210.73,-1204.18 -1882.1,-1709.07 -193.64,-145.62 -369.91,-254.03 -660.12,-306.29 -1429.52,-257.22 -2946.71,-310.27 -4381.48,-249.02 -967.16,41.25 -2003.89,131.63 -2912.72,495.9 -578.44,231.81 -1225.32,647.14 -1665.27,1025.23 -170.26,146.24 -340.36,292.51 -510.62,438.76 39.68,16.38 511.09,41.84 621.12,120.15 9.17,6.66 31.14,24.42 8.85,23.5 -58.49,-2.39 -148.28,-21.88 -901.56,-21.88 -89,0 -698.89,83.4 -1362.85,250.11 -67.35,16.89 -160.93,39.32 -199.03,105.88 -112.72,197.01 -204.09,405.37 -295.15,613.35 -67.5,2.02 -26.72,230.77 -5.69,396.69 20.87,-10.81 13.12,-237.87 123.31,-260.48 110.18,-22.53 702.37,-42.67 1195.44,-75.83 -225.43,0 -988.67,-49.05 -1238.44,-64.97 40.47,-98.78 158.56,-402.66 291.98,-557.19 37.15,-43.07 63.39,-69.82 119.04,-70.47 685.62,-7.7 2246.39,63.28 2246.39,63.28 182.59,200.16 365.18,400.33 547.77,600.47 0,0 13.59,48.51 -652.89,246.11zm6798.68 -767.22c1230.5,165.99 7068.74,264.99 7053.66,1469.47 239.35,-1.57 1590.95,58.39 1782.52,66.93 -200.48,-898.24 -4210.84,-1306.73 -6683.14,-1484.05 -1020.12,-49.77 -1821.14,-65.47 -2153.04,-52.35zm-3704 -2549.55c2196.21,-304.77 4945.3,-45.05 5602.41,49.41 585.32,84.14 841.11,202.55 1037.36,344.54 721.16,521.86 1434.17,1198.5 2039.1,1839.32 4393.95,221 7176.84,922.93 7981.87,1151.85 804.94,228.93 789.18,535.94 489.24,579.48 -31.59,131.62 68.7,803.46 -345.66,1402.72 418.49,235.36 360.61,356.63 335.86,541.65 -28.9,216.76 -249.98,376.8 -462.43,370.45 -382.57,315.13 -37.99,290 -607.25,553.34 112.78,201.95 234.04,418.02 -15.4,600.23 -249.44,182.22 -897.56,500.37 -1438.12,550.59 -540.57,50.28 98.3,50.28 859.92,100.51 761.74,50.23 393.21,175.88 -319.36,402.03 -209.84,66.59 -421.3,129.9 -633.83,191.04 -921.05,264.7 -1862.37,487.78 -2781.18,756.95 -316.96,92.87 -606.1,149.64 -835.26,142.42 -52.85,-1.66 -102.52,-6.7 -148.65,-15.58 -220.45,-42.23 -660.26,-122.89 -601.61,-239.87 -517.74,-82.74 -1051.27,-149.85 -1550.97,-262.51 -354.21,116.45 -723.91,234.57 -1094.02,306.09 -8.52,1.66 -17.07,3.33 -25.62,4.94 -59.93,11.21 -120.02,21.18 -179.84,29.76 -1109.87,158.01 -2319.98,-273.01 -2710.58,-1080.55 -0.51,-1.19 -5957.73,-1196.53 -7118.71,-1400.4 -123.15,60.36 -270.64,123.41 -426.99,123.88 -278.39,0.88 -583.81,-16.87 -824.57,-41.14 -289.93,-29.25 -497.02,-231.91 -644.99,-494.01 -203.77,-360.69 -271.75,-906.28 -289.14,-1508.24 0,0 32.88,-18.9 -276.65,-174.01 -82.36,-41.33 -125.36,-97.89 -188.6,-166.63 -318.22,-346.31 -559.93,-630.62 -619.69,-1041.5 -40.52,-29.1 -50.96,-159.27 -53.59,-291.97l0 -102.77c3.05,-123.43 19.06,-225.05 66.4,-215.07 0,0 68.45,-337.29 206.46,-597.64 69.87,-131.81 113.5,-123.96 256.09,-158.75 368.18,-89.67 1099.33,-263.2 1461.03,-291.07 1035.14,-1016.34 2093.84,-1714.88 3856.97,-1959.49zm5650.11 4211.33c-1538.23,81.62 -1979.12,1777.32 -1757.4,3032.54 -2021.27,-466.22 -4153.71,-777.31 -6159.97,-1299.21 -276.81,-72 -409.45,-233.49 -460.82,-341.63 -299.89,-632.07 -376.56,-1686.32 -1071.98,-2026.14 -268.27,-131.03 -600.73,-141.77 -800.39,111.57 -215.31,273.01 -226.69,769.91 -92.95,1146.08 -38.73,-277.1 -64.34,-717.68 119.67,-953.15 172.94,-221.1 447.7,-180.96 664.12,-56.22 592.66,341.33 775.72,1259.18 1078.77,1829.09 133.9,251.9 340.04,341.14 581.28,403.53 2074.08,535.99 4197.34,945.44 6286.63,1421.03 -201.64,-1214.61 77.46,-2553.91 1218.51,-2878.31 1679.7,-477.5 2916.1,1489.06 3396.27,2510.71 101,214.73 312.74,498.75 542.61,547.41 231.55,49.04 713.41,142.63 811.5,167.41 51.52,69.92 482.34,358.24 590.72,450.29 108.29,91.98 309.21,252.8 555.61,239.03 836.73,-46.8 1934.11,-226.78 2490.68,-349.93 -204.88,22.54 -1458.53,151.72 -2252.4,199.56 -328.6,19.84 -427.81,7.27 -616.46,-118.06 -177.08,-117.7 -382.85,-275.86 -562.27,-409.87 93.57,11.78 1280.17,7.37 682.89,-41.72 -530.74,-43.63 -1061.41,-125.59 -1592.14,-233.74 -278.43,-56.72 -419.84,-310.35 -531.84,-546.22 -613.34,-1291.36 -1431.62,-2893.66 -3120.64,-2804.05zm-3803.79 2107.01c-110.63,-761.07 -72.26,-1554.37 -107.21,-2363.84 -129.08,190.4 -155.48,1607.4 -147.43,1912.93 7.54,287.13 -99.83,200.23 -350.08,191.3 -640.88,-22.96 -2358.79,-416.33 -2652.68,-327.96 683.73,143.81 2171.62,438.69 3257.4,587.57zm-2921.46 -1291.3c-474.42,-120.16 -992.3,-155.48 -1480.63,-297.43 -136.74,-39.73 -200.29,-88.37 -234.6,-238.42 -74.93,-327.34 -105.76,-700.92 -117.62,-1057.58 -47.42,103.64 -46.31,718.14 3.48,1030.79 33.68,212.26 81.73,339.25 318.07,377.94 502.24,82.15 1016.17,167.04 1511.3,184.7zm6851.58 -238.47c-605.39,294.01 -1040.48,1049.05 -1040.48,1922.65 0,1137.99 731.26,2060.84 1633.01,2060.84 1107.78,0 1667.77,-1203.69 1628.17,-2194.6 -7.45,-187.76 -31.74,-241.53 -142.78,-388.21 -116.75,-154.26 -241.38,-307.18 -372.91,-453.29 -98.76,95.05 -274.22,304.95 -409.25,380.52 -128.87,-165.58 -298.4,-329.46 -480.12,-418.13 29.04,-130.85 175.58,-458.85 222.79,-578.21 -214.54,-157.98 -759.75,-466.83 -1038.43,-331.57zm4394.53 131.26c-73.27,477.47 70.43,897.16 321.04,937.16 250.52,39.94 513.19,-314.88 586.53,-792.38 73.38,-477.51 -70.36,-897.14 -320.88,-937.15 -250.62,-39.96 -513.31,314.86 -586.69,792.37zm-9910.92 -4149.32c231.91,-7.48 502.71,16.98 686.4,301.15 306.21,473.72 542.08,827.13 769.17,1214.14 -161.49,-339.54 -494.73,-1049.54 -605.71,-1275.89 -153.02,-312.15 -374.5,-420.66 -699.21,-412.22 -582.86,15.2 -1185.32,114.78 -1747.32,245.86 -147.65,34.45 -699.68,211.45 -174.84,105.66 659.85,-133 1210.94,-160.53 1771.51,-178.7zm-4177.41 5884.71c324.07,-14.23 551.4,-646.2 525.48,-1411.25 -25.77,-765.09 -309.69,-1374.07 -633.77,-1359.89 -324.07,14.23 -544.29,616.88 -518.36,1381.95 25.93,765.06 302.57,1403.37 626.65,1389.19zm15398.37 -3469.31c539.04,129.12 1242,456.72 1468.39,832.82 104.42,-27.15 336.2,-71.02 445.94,-75.82 -25.48,-317.34 -1306.45,-641.43 -1914.33,-757zm-5344.61 -707.07c859.3,64.47 7482.19,489.81 7573.38,1421.44 880.1,-30.56 2697.83,-127.87 3012.8,-123.82 395.27,4.99 202.09,-149.02 -3.51,-205.63 -2542.01,-700.04 -6002.85,-1058.71 -7981.71,-1166.11 -750.46,19.87 -1818.65,54.96 -2600.96,74.12zm4349.08 3845.15c-804.72,14.08 -1185.23,-134.95 -1556.3,-168.34 -370.93,-33.4 -378.58,186.42 -205.88,229.52 172.7,43.22 1018.41,153.44 1302.96,143.25 284.54,-10.12 1012.84,29.3 2444.77,22.5 1432.01,-6.85 3592.62,-434.18 4263.8,-603.97 671.17,-169.81 107.02,-413.93 28.08,-481.4 0,0 -64.55,-83.84 -144.66,-11.7 -80.11,72.21 10.72,143.53 -39.25,225.8 -49.87,82.28 -170.31,144.35 -652.81,238.99 -482.41,94.58 -2040.43,378.86 -2774.71,413.15 -734.27,34.27 -1861.2,-21.88 -2666,-7.8zm3637.93 -2215.93c-378.62,12.89 -732.13,-38.62 -1022.42,591.82 -290.31,630.46 -479.62,1054.98 -441.72,1093.63 467.01,-874.89 492.21,-1003.57 643.7,-1183.69 151.51,-180.11 151.51,-283.07 883.54,-321.64 732.11,-38.63 2650.75,-192.96 2650.75,-321.65 -504.9,12.9 -2335.14,128.69 -2713.85,141.53zm1226.12 2402.24c-98.3,171.2 -196.59,353.88 -320.91,507.79 -71.65,88.67 -147.08,147.1 -246.92,185.59 -267.44,102.95 -630.2,183.09 -913.32,193.59 -214.87,7.99 -183.72,77.7 47.08,75.3 275.64,-2.9 594.39,-59.57 858.32,-142.32 142.95,-44.87 266.81,-116.96 357.74,-237.53 118.64,-157.38 215.23,-361.97 301.73,-538.95 62.57,-128.39 37.72,-254.71 -83.72,-43.47zm-3661.27 -1040.03c-229.02,-220.49 -508.97,-272.33 -534.46,-194.52 0,142.64 101.83,402.08 -50.95,583.67 139.99,0 839.94,64.87 1030.78,64.87 190.95,0 292.67,-77.79 330.92,-246.46 38.18,-168.59 458.12,-985.79 610.78,-1361.95 -1908.83,142.68 -1565.22,791.27 -1387.07,1154.39zm1982.63 -547.92c-187.87,408.04 -310.48,682.83 -285.9,707.8 302.27,-566.26 318.56,-649.55 416.6,-766.07 98.03,-116.63 98.03,-183.23 571.88,-208.19 473.86,-25.01 1715.57,-124.93 1715.57,-208.2 -326.77,8.3 -1511.31,83.27 -1756.44,91.62 -245.02,8.3 -473.84,-25.01 -661.71,383.04zm2654.44 537.06c-52.57,110.08 -144.92,139 -239.89,155.68 -908.73,159.62 -1833.13,274.04 -2819.36,351.13 -483.3,37.8 -410.95,121.34 48.51,89.29 946.9,-66.07 1913.88,-191.26 2841.15,-368.38 116.13,-22.22 227.57,-100.77 268.79,-227.04 17.92,-54.64 97.5,-235.24 157.54,-370.18 78.85,-177.02 -32.95,-138.11 -92.09,5.56 -47.98,116.25 -129,289.31 -164.65,363.94zm-4917.96 1671.29c6.33,-72.88 -66.95,-130.84 -243.58,-80.73 -194.87,55.23 -496.89,290.84 -531.19,457.87 -24.55,119.74 87.04,173.85 202.98,148.51 169.07,-36.94 553.09,-311.08 571.79,-525.65zm1669.86 -394.04c-163.48,-3.42 -1695.23,6.77 -1801.27,62.44 440.99,16 1552.09,107.79 1657.78,115.42 133.94,9.7 106.12,59.83 62.55,139.1 -36.11,65.71 -104.05,194.1 -273.92,482.7 75.44,-20.58 450.36,-530.29 580.26,-689.33 106.04,-129.91 -191.11,-109.65 -225.4,-110.33z"/>
   <path class="fil0 str0" d="M14937.67 3019.81l-5573.53 146.94c-367.1,-654.27 -797.74,-1695.13 -831.22,-1809.1 -33.58,-113.9 -61.21,-180.39 178.76,-205.06 1314.37,-135.06 2706.64,-108.78 4013.01,102.4 231.15,37.34 378.52,116.25 560.54,260.75 584.19,463.83 1106.31,938.35 1652.44,1504.07zm-5382.68 -1777.95c1545.31,787.59 1623.83,1476.57 1388.96,1739.13 249.19,-6.29 498.27,1.88 747.51,-23.87 688.56,-370.9 -1402.22,-1600.74 -1709.09,-1718.19 -107.01,-5.92 -282.45,10.33 -427.38,2.93zm699.6 -6.88c477.28,177.59 2221.99,1344.02 1653.91,1706.96 440.88,-26.15 891.87,-8.34 1331.9,-47.34 -212.91,-654.76 -1288.59,-1230.24 -2129.21,-1654.25 -279.03,-12.43 -571.7,-21.15 -856.6,-5.37z"/>
   <path class="fil0 str0" d="M17113.88 6338.26c211.98,154.42 518.19,-47.93 693.13,-736.79 22.73,192.49 -84.43,654.73 -186.95,798.33 -182.13,254.84 -409.71,213.44 -506.18,-61.54z"/>
   <path class="fil0 str0" d="M14654.49 7485.96c-7.29,506.33 -96.93,813.35 -173.47,1000.86 -203.42,-112.65 -403.64,-274.35 -534.6,-429.86 30.92,-38.96 97.73,-444.83 93.15,-527.63 153.23,-28.73 427.49,-37.81 614.92,-43.37z"/>
   <path class="fil0 str0" d="M13614.59 8373.64c106.23,217.86 278.16,505.09 343.96,750.51 -154.72,164.76 -623.13,220.03 -823.64,144.35 -22.67,-236.59 -8.21,-739.65 11.05,-836.74 133.42,1.05 338.11,-24.39 468.63,-58.12z"/>
   <path class="fil0 str0" d="M12810.45 8169.67c-77.51,181.59 -216.56,361.11 -344.21,506.74 -214.79,-241.68 -346.21,-730.44 -300.05,-1044.17 157.56,-31.65 286.28,-19.65 445.33,-4.58 52.94,180.13 119.18,373.3 198.93,542.01z"/>
   <path class="fil0 str0" d="M13280.55 7603.67c0,-183.62 -84.24,-332.49 -188.14,-332.49 -33.13,0 -64.21,15.16 -91.16,41.76 34.28,-79.57 88.46,-130.79 149.4,-130.79 103.85,0 188.14,148.82 188.14,332.42 0,124.98 -39.19,233.91 -96.87,290.68 24.2,-56 38.63,-125.8 38.63,-201.58z"/>
   <path class="fil0 str0" d="M13216.08 7935.11c360.63,-217.91 228.55,-636.97 70.22,-831.08 79.65,-16.15 159.45,76.72 205.06,160.98 98.55,181.69 89.13,462.47 -59.11,604.48 -39.65,38.03 -111.09,73.56 -216.17,65.62z"/>
   <path class="fil0 str0" d="M13003.49 6820.43c-118.48,99.36 -219.03,238 -290.31,374.24 -60.08,-47.63 -252.6,-184.39 -406.09,-422.44 88.1,-224.91 372.25,-604.24 620.22,-747.07 0,0 16.09,414.38 76.18,795.27z"/>
   <path class="fil0 str0" d="M13099.59 5751.44c-647.12,249.1 -1105.59,987.13 -1105.59,1873.25 0,816.9 399.52,1518 968.88,1817.76 -814.57,-235.09 -1228.21,-1081.85 -1208.44,-1849.44 21.11,-817.1 517.54,-1678.02 1345.15,-1841.57z"/>
   <path class="fil0 str0" d="M2941.61 6735.4c18.02,58.8 105.92,376.74 145.6,539.16 -76.36,66.16 -310.64,74.64 -346.69,-68.42 -33.98,-134.72 1.9,-314.76 39.53,-454.32 16.6,-62.02 18.02,-67.42 73.35,-47.01 55.64,20.52 88.21,30.59 88.21,30.59z"/>
   <path class="fil0 str0" d="M2613.58 5994.25l0 502.38c-22.29,36.21 -47.11,74.89 -70.19,111.36 -63.23,99.98 -45.84,109.35 -72.24,-21.66 -49.8,-245.8 -68.77,-501.23 -38.89,-750.01 6.16,-50.24 0.63,-70.06 37.47,-23.67 54.38,68.68 107.02,135.47 143.85,181.6z"/>
   <path class="fil0 str0" d="M3088.79 6546.03c39.04,-87.06 73.51,-210.68 73.82,-341.16 88.21,-36.36 174.53,-48.68 217.69,-52.72 7.43,247.65 -16.44,478.38 -63.87,669.52 -61.81,-88.65 -209.78,-253.51 -227.64,-275.64z"/>
   <path class="fil0 str0" d="M2829.53 5654.74c-56.91,27.42 -103.39,93.99 -133.9,186.03 -34.46,-91.2 -60.86,-172.59 -82.05,-243.62l0 -417.89c63.08,-121.8 157.61,-236.63 289.62,-214.94 -11.7,78.26 -66.4,568.33 -73.67,690.42z"/>
   <path class="fil0 str0" d="M2999 5690.06c39.99,-156.5 105.91,-323.11 154.29,-464.14 74.45,152.53 123.15,351.38 160.29,524.29 -62.12,51.89 -150.02,107.53 -199.34,137.18 -28.93,-85.52 -68.93,-154.34 -115.24,-197.33z"/>
   <path class="fil0 str0" d="M2613.58 5179.26l0 417.89c-32.25,-108.08 -52.32,-192.17 -69.87,-250.76 16.28,-47.52 39.36,-108.14 69.87,-167.13z"/>
   <path class="fil0 str0" d="M2613.58 5994.25c20.24,25.35 35.73,44.41 44.27,54.27 -2.38,37.45 -3.01,76.62 -1.43,116.87 2.85,71.37 12.33,139.84 27.19,202.47 -9.01,26.59 -36.83,74.85 -70.03,128.77l0 -502.38z"/>
   <path class="fil0 str0" d="M2909.68 6229.03c0,-122.53 -38.58,-221.9 -86.16,-221.9 -15.18,0 -29.4,10.12 -41.74,27.89 15.66,-53.08 40.48,-87.37 68.46,-87.37 47.58,0 86,99.37 86,221.9 0,83.47 -17.87,156.13 -44.27,194.06 11.07,-37.35 17.71,-84 17.71,-134.58z"/>
   <path class="fil0 str0" d="M2880.11 6450.3c165.2,-145.44 104.66,-425.14 32.25,-554.79 36.36,-10.7 72.88,51.26 93.75,107.46 45.21,121.29 40.78,308.74 -26.88,403.48 -18.18,25.42 -51.06,49.15 -99.12,43.85z"/>
  </g>
 </g>
</svg>
