<?xml version="1.0" encoding="UTF-8"?>
<!DOCTYPE svg PUBLIC "-//W3C//DTD SVG 1.1//EN" "http://www.w3.org/Graphics/SVG/1.1/DTD/svg11.dtd">
<!-- Creator: CorelDRAW 2020 (64 Bit) -->
<svg xmlns="http://www.w3.org/2000/svg" xml:space="preserve" width="300mm" height="125mm" version="1.1" style="shape-rendering:geometricPrecision; text-rendering:geometricPrecision; image-rendering:optimizeQuality; fill-rule:evenodd; clip-rule:evenodd"
viewBox="0 0 30000 12500"
 xmlns:xlink="http://www.w3.org/1999/xlink"
 xmlns:xodm="http://www.corel.com/coreldraw/odm/2003">
 <defs>
  <style type="text/css">
   <![CDATA[
    .str0 {stroke:#373435;stroke-width:20;stroke-miterlimit:22.9256}
    .fil0 {fill:black}
   ]]>
  </style>
 </defs>
 <g id="Camada_x0020_1">
  <metadata id="CorelCorpID_0Corel-Layer"/>
  <path class="fil0 str0" d="M10122.44 5262.05c42.63,987.4 -4.18,1955.09 130.78,2883.46 -1324.46,-181.59 -3139.44,-541.3 -3973.46,-716.72 358.48,-107.8 2454.03,372.04 3235.8,400.04 305.26,10.9 436.23,116.89 427.04,-233.35 -9.82,-372.69 22.38,-2101.18 179.84,-2333.43zm-6756.83 -460.62c848.29,414.52 941.82,1700.52 1307.63,2471.54 62.66,131.91 224.45,328.9 562.11,416.72 2447.3,636.63 5048.5,1016.11 7514.1,1584.81 -270.46,-1531.15 267.34,-3599.61 2143.73,-3699.16 2060.3,-109.31 3058.46,1845.2 3806.63,3420.44 136.62,287.72 309.12,597.11 648.75,666.3 647.4,131.92 1294.74,231.9 1942.14,285.12 728.58,59.87 -718.87,65.26 -833.01,50.9 218.87,163.46 469.86,356.38 685.88,499.95 230.11,152.9 351.14,168.22 751.97,144.03 968.38,-58.35 2497.62,-215.93 2747.54,-243.43 -678.93,150.22 -2017.54,369.77 -3038.21,426.86 -300.55,16.79 -545.65,-179.38 -677.74,-291.59 -132.21,-112.28 -657.73,-463.98 -720.57,-549.28 -119.66,-30.22 -707.44,-144.39 -989.89,-204.19 -280.4,-59.36 -538.69,-405.82 -661.89,-667.75 -585.73,-1246.24 -2093.92,-3645.09 -4142.86,-3062.64 -1391.88,395.71 -1732.34,2029.43 -1486.37,3511.04 -2548.57,-580.14 -5138.58,-1079.59 -7668.6,-1733.4 -294.27,-76.11 -545.73,-184.97 -709.07,-492.24 -369.66,-695.19 -592.96,-1814.8 -1315.91,-2231.17 -263.99,-152.16 -599.14,-201.12 -810.1,68.57 -224.47,287.23 -193.23,824.67 -145.98,1162.69 -163.14,-458.87 -149.26,-1065 113.38,-1398.02 243.56,-309.03 649.09,-295.95 976.34,-136.1zm497.91 2033.55c31.62,933.22 -245.68,1704.12 -641,1721.48 -395.31,17.29 -732.78,-761.33 -764.4,-1694.58 -31.62,-933.25 236.99,-1668.38 632.31,-1685.73 395.32,-17.31 741.65,725.55 773.09,1658.83zm9914.56 1789.78c0,-1065.64 530.72,-1986.66 1269.19,-2345.3 339.95,-164.99 1005.01,211.76 1266.71,404.46 -57.58,145.6 -236.34,545.71 -271.77,705.32 221.67,108.16 428.46,308.06 585.66,510.04 164.73,-92.18 378.76,-348.21 499.22,-464.17 160.44,178.25 312.48,364.77 454.88,552.94 135.45,178.93 165.09,244.52 174.17,473.55 48.31,1208.73 -634.78,2677.03 -1986.08,2677.03 -1099.98,0 -1991.98,-1125.72 -1991.98,-2513.87zm6379.19 -2328.17c-71.23,-350.68 -111.21,-652.2 76.21,-987.36 -5153.39,-535.46 -10851.18,-1151.71 -16007.44,-825.11 813,-241.04 796.42,-300.2 796.42,-300.2 -222.73,-244.14 -445.45,-488.31 -668.18,-732.47 0,0 -1903.87,-86.59 -2740.21,-77.19 -67.87,0.79 -99.88,33.42 -145.2,85.95 -162.76,188.5 -306.8,559.18 -356.18,679.69 304.69,19.41 1235.7,79.25 1510.69,79.25 -601.46,40.45 -1323.82,65.01 -1458.23,92.49 -134.4,27.58 -124.95,304.55 -150.41,317.74 -25.65,-202.4 -75.4,-481.43 6.94,-483.89 111.08,-253.69 222.53,-507.87 360.02,-748.18 46.48,-81.2 160.64,-108.55 242.79,-129.16 809.91,-203.35 1553.88,-305.09 1662.44,-305.09 918.87,0 1028.4,23.78 1099.75,26.69 27.19,1.12 0.38,-20.54 -10.8,-28.66 -134.21,-95.53 -709.26,-126.59 -757.65,-146.57 207.68,-178.39 415.17,-356.81 622.85,-535.21 536.67,-461.21 1325.76,-967.84 2031.35,-1250.6 1108.62,-444.34 2373.24,-554.59 3553.02,-604.91 1750.16,-74.71 3600.88,-10 5344.64,303.76 354,63.74 569.02,195.99 805.23,373.62 818.96,615.87 1543.86,1386.46 2295.83,2084.78 -2403.44,84.04 -5612.2,83.5 -7674.69,211.2 -147.13,-264.59 -1015.72,-2011.8 -1128.92,-2242.33 -116.47,-237.94 -250.88,-336.93 -501.57,-327.14 -1024.73,40.4 -2013.02,133.97 -2951.36,509.93 -402.07,161.12 -793.91,313.72 -900.16,790.36l-119.76 538.02c-132.67,62.11 -449.69,129.94 -471.87,168.55 236.23,185.08 546.31,387.88 782.53,572.9 120.91,94.69 139.62,80.47 301.79,85.72 903.06,29.33 4627.99,95.89 6366.99,236.52 1357.4,109.74 7686.05,435.44 8658.05,1284.22 151.23,131.97 107.53,259.61 -43.46,401.25 -225.58,211.54 -400.98,704.52 -431.45,881.43zm250.57 143c89.52,-582.49 409.96,-1015.31 715.65,-966.56 305.59,48.8 480.94,560.68 391.42,1143.16 -89.45,582.46 -409.87,1015.28 -715.46,966.56 -305.7,-48.79 -480.99,-560.74 -391.61,-1143.16zm2890.03 -1017.19c-233.69,-10.42 -1882.4,-83.56 -2174.38,-81.66 18.4,-1469.25 -7103.22,-1590.01 -8604.23,-1792.49 404.86,-16 1381.96,3.15 2626.33,63.86 3015.78,216.3 7907.72,714.59 8152.28,1810.29zm5101.79 -377.53c-384.2,-4.94 -2601.51,113.77 -3675.09,151.03 -111.23,-1136.42 -8190.01,-1655.26 -9238.21,-1733.9 954.29,-23.37 2257.29,-66.19 3172.72,-90.42 2413.88,131.01 6635.49,568.53 9736.31,1422.45 250.79,69.06 486.43,256.93 4.27,250.84zm-6141 2066.16c-217.3,-442.95 -636.45,-1234.12 1692,-1408.17 -186.22,458.85 -698.48,1455.7 -745.05,1661.35 -46.67,205.74 -170.73,300.64 -403.67,300.64 -232.78,0 -1086.61,-79.13 -1257.37,-79.13 186.36,-221.51 62.16,-537.99 62.16,-711.98 31.08,-94.91 372.58,-31.68 651.93,237.29zm1723.3 -939.75c354.1,-769.04 785.32,-706.19 1247.16,-721.92 461.96,-15.66 2694.55,-156.91 3310.44,-172.64 0,156.98 -2340.41,345.24 -3233.46,392.36 -892.94,47.05 -892.94,172.64 -1077.76,392.34 -184.8,219.72 -215.53,376.69 -785.21,1443.9 -46.23,-47.15 184.69,-564.99 538.83,-1334.04zm346.43 1134.77c-29.99,-30.46 119.57,-365.66 348.74,-863.4 229.17,-497.74 508.29,-457.12 807.18,-467.24 299.01,-10.18 1743.94,-101.64 2142.54,-111.76 0,101.58 -1514.67,223.47 -2092.7,253.97 -578.01,30.44 -578.01,111.69 -697.59,253.95 -119.59,142.13 -139.45,243.74 -508.17,934.48zm3294.07 -18.38c115.85,-20.34 228.51,-55.62 292.63,-189.89 43.48,-91.05 142.31,-302.15 200.83,-443.95 72.15,-175.25 208.54,-222.72 112.34,-6.78 -73.24,164.6 -170.31,384.9 -192.16,451.55 -50.29,154.02 -186.22,249.85 -327.88,276.95 -1131.11,216.06 -2310.66,368.77 -3465.71,449.35 -560.46,39.1 -648.72,-62.79 -59.18,-108.91 1203.03,-94.03 2330.64,-233.61 3439.13,-428.32zm602.06 78.76c60.95,-100.35 -49.85,-187.36 47.88,-275.44 97.72,-87.99 176.46,14.27 176.46,14.27 96.3,82.31 784.46,380.09 -34.26,587.22 -818.72,207.11 -3454.29,728.39 -5201.08,736.74 -1746.72,8.3 -2635.12,-39.78 -2982.2,-27.44 -347.11,12.43 -1378.73,-122.02 -1589.39,-174.73 -210.66,-52.58 -201.33,-320.73 251.14,-279.98 452.65,40.72 916.81,222.52 1898.42,205.34 981.71,-17.17 2356.37,51.32 3252.05,9.52 895.69,-41.84 2796.22,-388.6 3384.67,-503.99 588.56,-115.43 735.48,-191.14 796.31,-291.51zm-1891.2 1632.66c151.65,-187.74 271.56,-410.58 391.47,-619.42 148.14,-257.67 178.44,-103.59 102.12,53.03 -105.52,215.88 -223.34,465.45 -368.07,657.44 -110.92,147.05 -262,234.99 -436.37,289.74 -321.96,100.93 -710.77,170.06 -1047.01,173.6 -281.54,2.92 -319.52,-82.11 -57.42,-91.85 345.35,-12.82 787.86,-110.56 1114.1,-236.15 121.77,-46.96 213.79,-118.22 301.18,-226.39zm1252.13 506.12c304.28,-222.27 156.36,-485.84 18.78,-732.19 694.41,-321.22 274.08,-290.57 740.75,-674.97 259.15,7.73 528.83,-187.48 564.08,-451.89 30.19,-225.69 100.81,-373.63 -409.69,-660.71 505.45,-731.01 383.11,-1550.54 421.65,-1711.09 365.87,-53.11 385.1,-427.61 -596.79,-706.85 -982,-279.26 -4376.64,-1135.48 -9736.5,-1405.07 -737.91,-781.69 -1607.65,-1607.07 -2487.34,-2243.65 -239.39,-173.21 -551.41,-317.63 -1265.39,-420.28 -801.57,-115.22 -4154.98,-432.04 -6833.98,-60.26 -2150.71,298.37 -3442.14,1150.47 -4704.83,2390.22 -441.21,34.01 -1333.09,245.68 -1782.2,355.07 -173.94,42.44 -227.16,32.87 -312.39,193.64 -168.35,317.58 -251.85,729.02 -251.85,729.02 -57.73,-12.17 -77.28,111.78 -80.99,262.34l0 125.37c3.22,161.87 15.94,320.65 65.37,356.15 72.89,501.2 367.74,848.01 755.92,1270.45 77.14,83.86 129.58,152.84 230.05,203.26 377.58,189.21 337.47,212.26 337.47,212.26 21.21,734.29 104.13,1399.81 352.7,1839.79 180.49,319.72 433.11,566.94 786.77,602.6 293.69,29.61 666.25,51.27 1005.83,50.19 190.72,-0.58 370.65,-77.49 520.86,-151.11 1416.19,248.68 8682.97,1706.79 8683.59,1708.25 476.46,985.05 1952.58,1510.82 3306.43,1318.07 72.97,-10.45 146.27,-22.62 219.38,-36.3 10.43,-1.96 20.87,-3.99 31.25,-6.01 451.47,-87.25 902.44,-231.34 1334.51,-373.39 609.56,137.43 1260.36,219.3 1891.93,320.23 -71.55,142.68 464.95,241.07 733.85,292.59 56.27,10.83 116.86,16.98 181.32,19.01 279.54,8.81 632.24,-60.45 1018.88,-173.74 1120.78,-328.33 2269.03,-600.46 3392.55,-923.34 259.25,-74.58 517.19,-151.81 773.16,-233.04 869.23,-275.87 1318.76,-429.13 389.57,-490.41 -929.04,-61.26 -1708.36,-61.26 -1048.95,-122.59 659.38,-61.27 1449.98,-449.36 1754.25,-671.62zm-22702.02 -3297.67c595.67,173.16 1227.4,216.24 1806.1,362.81 -603.96,-21.54 -1230.88,-125.09 -1843.52,-225.29 -288.28,-47.19 -346.91,-202.1 -387.98,-461.03 -60.75,-381.39 -62.09,-1130.96 -4.24,-1257.38 14.46,435.06 52.06,890.76 143.47,1290.07 41.84,183.03 119.36,242.35 286.17,290.82zm4272.1 -4462.07c-224.07,-346.63 -554.4,-376.46 -837.3,-367.35 -683.79,22.18 -1356.02,55.75 -2160.92,217.99 -640.22,129.05 33.17,-86.85 213.27,-128.88 685.54,-159.91 1420.44,-281.37 2131.42,-299.91 396.09,-10.3 666.26,122.06 852.93,502.83 135.36,276.11 541.87,1142.19 738.85,1556.37 -277.01,-472.09 -564.73,-903.18 -938.25,-1481.05zm14641.51 3594.92c-276.16,-458.77 -1133.65,-858.39 -1791.19,-1015.89 741.52,140.97 2304.08,536.3 2335.16,923.41 -133.86,5.85 -416.6,59.36 -543.97,92.48zm-2178.13 3697.6c215.46,-61.13 304.84,9.57 297.13,98.47 -22.82,261.73 -491.26,596.14 -697.49,641.19 -141.43,30.92 -277.56,-35.08 -247.6,-181.14 41.84,-203.76 410.25,-491.16 647.96,-558.52zm136.81 -306.03c129.37,-67.91 1997.83,-80.33 2197.25,-76.17 41.83,0.83 404.3,-23.87 274.94,134.59 -158.45,194.01 -615.78,815.75 -707.8,840.85 207.2,-352.02 290.08,-508.65 334.12,-588.8 53.15,-96.69 87.09,-157.84 -76.3,-169.67 -128.91,-9.32 -1484.26,-121.27 -2022.21,-140.8z"/>
  <path class="fil0 str0" d="M2844.57 7281.4l0 -612.81c-44.94,-56.27 -109.15,-137.75 -175.49,-221.52 -44.93,-56.59 -38.17,-32.41 -45.7,28.88 -36.44,303.46 -13.31,615.04 47.44,914.88 32.2,159.8 10.99,148.37 88.13,26.41 28.15,-44.48 58.42,-91.67 85.62,-135.84z"/>
  <path class="fil0 str0" d="M2844.57 6184.19c25.83,86.65 58.04,185.93 100.07,297.18 37.22,-112.27 93.92,-193.47 163.34,-226.93 8.87,-148.93 75.6,-746.72 89.87,-842.19 -161.02,-26.46 -276.34,113.61 -353.28,262.19l0 509.75z"/>
  <path class="fil0 str0" d="M3502.91 5731.36c-59,172.03 -139.42,375.27 -188.21,566.17 56.5,52.45 105.29,136.4 140.58,240.71 60.17,-36.18 167.37,-104.04 243.17,-167.34 -45.32,-210.93 -104.71,-453.48 -195.54,-639.54z"/>
  <path class="fil0 str0" d="M3779.82 6861.2c-52.64,4.93 -157.93,19.95 -265.54,64.31 -0.37,159.16 -42.42,309.96 -90.05,416.16 21.79,26.99 202.29,228.08 277.68,336.23 57.86,-233.16 86.97,-514.61 77.91,-816.7z"/>
  <path class="fil0 str0" d="M3422.3 8230.35c-48.39,-198.14 -155.62,-585.96 -177.6,-657.69 0,0 -39.73,-12.29 -107.6,-37.3 -67.49,-24.91 -69.23,-18.33 -89.48,57.33 -45.9,170.24 -89.67,389.86 -48.21,554.2 43.97,174.5 329.76,164.16 422.89,83.46z"/>
  <path class="fil0 str0" d="M3184.15 7119.14c32.21,-46.26 54,-134.89 54,-236.72 0,-149.46 -46.87,-270.67 -104.91,-270.67 -34.13,0 -64.4,41.83 -83.5,106.57 15.05,-21.68 32.4,-34.02 50.91,-34.02 58.05,0 105.1,121.22 105.1,270.68 0,61.7 -8.1,118.6 -21.6,164.16z"/>
  <path class="fil0 str0" d="M3209.02 6548.15c88.33,158.14 162.18,499.33 -39.33,676.74 58.62,6.47 98.73,-22.49 120.91,-53.48 82.53,-115.58 87.93,-344.23 32.78,-492.19 -25.46,-68.56 -70,-144.13 -114.36,-131.07z"/>
  <path class="fil0 str0" d="M16782.28 8541.12c5.6,101 -75.9,596.09 -113.62,643.62 159.74,189.7 403.97,386.94 652.12,524.35 93.37,-228.73 202.71,-603.24 211.59,-1220.89 -228.63,6.79 -563.18,17.88 -750.09,52.92z"/>
  <path class="fil0 str0" d="M16683.45 10486.53c-80.26,-299.38 -289.99,-649.75 -419.57,-915.5 -159.21,41.14 -408.89,72.18 -571.65,70.9 -23.49,118.43 -41.13,732.07 -13.48,1020.68 244.6,92.31 815.97,24.89 1004.7,-176.08z"/>
  <path class="fil0 str0" d="M14863.09 9940.36c155.72,-177.64 325.33,-396.63 419.89,-618.13 -97.29,-205.8 -178.09,-441.43 -242.67,-661.17 -194.01,-18.38 -351.03,-33.02 -543.22,5.58 -56.31,382.71 103.99,978.91 366,1273.72z"/>
  <path class="fil0 str0" d="M14668.97 7617.6c187.22,290.37 422.05,457.19 495.35,515.3 86.95,-166.19 209.59,-335.31 354.12,-456.51 -73.29,-464.62 -92.93,-970.1 -92.93,-970.1 -302.48,174.24 -649.08,636.95 -756.54,911.31z"/>
  <path class="fil0 str0" d="M14287.05 8657.45c0,-1080.92 559.25,-1981.19 1348.62,-2285.05 -1009.53,199.5 -1615.1,1249.68 -1640.84,2246.4 -24.14,936.32 480.45,1969.23 1474.08,2256 -694.52,-365.66 -1181.86,-1220.88 -1181.86,-2217.35z"/>
  <path class="fil0 str0" d="M15697.96 8117.62c-74.34,0 -140.43,62.49 -182.25,159.54 32.88,-32.45 70.79,-50.94 111.21,-50.94 126.73,0 229.49,181.6 229.49,405.57 0,92.44 -17.6,177.6 -47.13,245.9 70.37,-69.24 118.18,-202.12 118.18,-354.57 0,-223.96 -102.83,-405.5 -229.5,-405.5z"/>
  <path class="fil0 str0" d="M15863.43 8022.33c193.13,236.77 354.24,747.96 -85.65,1013.77 128.17,9.69 215.31,-33.66 263.67,-80.04 180.83,-173.23 192.33,-515.73 72.11,-737.37 -55.64,-102.78 -152.98,-216.05 -250.13,-196.36z"/>
  <path class="fil0 str0" d="M20532.41 7088.22c117.67,335.43 395.28,385.93 617.44,75.07 125.06,-175.17 255.78,-739.02 228.05,-973.83 -213.39,840.29 -586.91,1087.13 -845.49,898.76z"/>
  <path class="fil0 str0" d="M13918 2963.82c839.92,-452.44 -1710.47,-1952.62 -2084.8,-2095.89 -130.52,-7.22 -344.54,12.59 -521.33,3.57 1885.02,960.72 1980.79,1801.17 1694.3,2121.44 303.97,-7.67 607.8,2.29 911.83,-29.12z"/>
  <path class="fil0 str0" d="M12165.27 863.1c582.19,216.64 2710.43,1639.48 2017.47,2082.21 537.81,-31.9 1087.93,-10.19 1624.7,-57.75 -259.71,-798.7 -1571.86,-1500.68 -2597.27,-2017.9 -340.37,-15.16 -697.37,-25.8 -1044.9,-6.56z"/>
 </g>
</svg>
